<?xml version="1.0" encoding="UTF-8"?>
<svg xmlns="http://www.w3.org/2000/svg" width="362" height="66" viewBox="0 0 362 66" fill="none">
  <g clip-path="url(#clip0_2_695)">
    <path d="M106.585 43.7862H101.768V46.2021H105.766L105.736 48.3504H101.777V52.7091H99.3222V41.501H106.524L106.585 43.7862Z" fill="#FFFFFF"></path>
    <path d="M111.531 52.8741C110.024 52.8741 108.913 52.4735 108.196 51.6724C107.48 50.8712 107.122 49.6695 107.124 48.0671C107.124 46.5955 107.448 45.4664 108.096 44.6798C108.743 43.8931 109.719 43.5009 111.022 43.5029C112.179 43.5029 113.077 43.8537 113.714 44.5553C114.352 45.2568 114.67 46.3081 114.67 47.7091C114.674 48.0732 114.655 48.4372 114.613 48.7988H109.46C109.519 49.546 109.733 50.0783 110.103 50.3959C110.472 50.7135 111.04 50.8733 111.808 50.8754C112.617 50.8772 113.419 50.7252 114.174 50.427L114.421 52.2951C113.509 52.6983 112.524 52.8959 111.531 52.8741ZM109.414 47.2701H112.597C112.569 46.0434 112.048 45.4332 111.034 45.4332C110.82 45.4133 110.603 45.4402 110.4 45.5121C110.196 45.584 110.01 45.6993 109.853 45.8504C109.565 46.2626 109.411 46.7573 109.414 47.2639V47.2701ZM110.699 40.7632H113.285L111.534 42.9425H109.825L110.699 40.7632Z" fill="#FFFFFF"></path>
    <path d="M123.459 52.7091H121.693L121.474 51.9339L121.428 51.9184C120.882 52.5659 120.094 52.8897 119.065 52.8897C117.926 52.8897 117.076 52.5016 116.516 51.7253C115.956 50.9491 115.676 49.7546 115.678 48.1419C115.678 46.6412 115.961 45.4903 116.525 44.6891C117.089 43.888 117.926 43.4874 119.034 43.4874C119.831 43.4684 120.605 43.7626 121.197 44.3093L121.224 44.2782L121.197 43.0827V41.0963L123.459 40.978V52.7091ZM121.203 50.2465V46.2489C121.031 46.0151 120.805 45.8294 120.545 45.7091C120.284 45.5888 119.998 45.5378 119.713 45.5609C119.09 45.5609 118.652 45.757 118.398 46.1493C118.145 46.5447 118.02 47.2421 118.02 48.2477C118.02 49.3042 118.139 50.0306 118.377 50.4271C118.614 50.8235 119.055 51.0207 119.698 51.0186C120.413 51.0124 120.914 50.755 121.203 50.2465Z" fill="#FFFFFF"></path>
    <path d="M129.324 52.8741C127.816 52.8741 126.704 52.4735 125.99 51.6724C125.275 50.8712 124.918 49.6695 124.918 48.0671C124.918 46.5955 125.242 45.4664 125.889 44.6798C126.537 43.8931 127.512 43.5009 128.816 43.5029C129.973 43.5029 130.87 43.8537 131.508 44.5553C132.145 45.2568 132.466 46.3081 132.47 47.7091C132.476 48.0732 132.456 48.4373 132.412 48.7988H127.254C127.31 49.546 127.525 50.0783 127.896 50.3959C128.268 50.7135 128.837 50.8733 129.605 50.8754C130.413 50.877 131.214 50.725 131.968 50.427L132.217 52.295C131.305 52.698 130.318 52.8955 129.324 52.8741ZM127.208 47.2701H130.39C130.363 46.0434 129.842 45.4332 128.828 45.4332C128.613 45.4133 128.397 45.4402 128.193 45.5121C127.99 45.584 127.803 45.6993 127.646 45.8504C127.358 46.2626 127.205 46.7573 127.208 47.2639V47.2701ZM128.493 40.7632H131.091L129.34 42.9425H127.631L128.493 40.7632Z" fill="#FFFFFF"></path>
    <path d="M136.143 52.7092H133.865V43.7271L135.677 43.6368L135.881 45.1437H135.924C136.478 44.0603 137.29 43.5175 138.36 43.5154C138.686 43.5111 139.01 43.5573 139.322 43.6524L139.176 45.9345C138.864 45.8349 138.54 45.7845 138.214 45.785C137.936 45.7763 137.659 45.8291 137.403 45.9398C137.147 46.0505 136.918 46.2165 136.731 46.4264C136.327 46.9119 136.121 47.537 136.155 48.173L136.143 52.7092Z" fill="#FFFFFF"></path>
    <path d="M145.26 52.7091L145.084 51.8436L145.041 51.8281C144.745 52.1749 144.376 52.4481 143.961 52.6267C143.546 52.8053 143.097 52.8846 142.648 52.8586C142.278 52.8812 141.908 52.826 141.56 52.6964C141.212 52.5668 140.894 52.3656 140.626 52.1052C140.144 51.6039 139.904 50.8598 139.904 49.8604C139.887 49.4771 139.953 49.0948 140.097 48.7404C140.241 48.3859 140.458 48.0679 140.735 47.8087C141.289 47.294 142.063 47.0376 143.056 47.0397C143.629 47.0354 144.2 47.1204 144.749 47.2919V46.7689C144.764 46.5816 144.737 46.3931 144.669 46.2185C144.601 46.044 144.493 45.8881 144.356 45.7633C143.972 45.5191 143.521 45.4097 143.071 45.4519C142.235 45.4508 141.407 45.618 140.635 45.9438L140.446 44.0945C141.411 43.6853 142.447 43.4819 143.491 43.4967C144.776 43.4967 145.684 43.7852 146.214 44.3622C146.744 44.9393 147.008 45.8598 147.008 47.1238V52.7278L145.26 52.7091ZM144.749 49.9632V48.8299C144.346 48.6852 143.921 48.6197 143.494 48.6369C142.511 48.6369 142.02 49.0323 142.02 49.8293C142.02 50.6263 142.437 51.0217 143.275 51.0217C143.641 51.029 144.001 50.9202 144.304 50.7104C144.435 50.6353 144.546 50.5273 144.624 50.3965C144.703 50.2658 144.748 50.1166 144.755 49.9632H144.749Z" fill="#FFFFFF"></path>
    <path d="M153.367 45.3958H151.397V50.0222C151.397 50.6916 151.747 51.0216 152.447 51.0216C152.685 51.0285 152.922 50.9938 153.148 50.9189L153.279 52.6063C152.792 52.7916 152.275 52.8773 151.756 52.8585C150.887 52.8585 150.232 52.6177 149.792 52.1362C149.321 51.57 149.083 50.8389 149.128 50.097V45.3958H148.135V43.6648H149.228L149.609 41.6224L151.391 41.4574V43.6648H153.361L153.367 45.3958Z" fill="#FFFFFF"></path>
    <path d="M157.323 41.719C157.323 42.3769 156.894 42.7059 156.038 42.7059C155.695 42.7323 155.353 42.6543 155.054 42.4818C154.945 42.3907 154.86 42.2732 154.807 42.14C154.754 42.0067 154.734 41.862 154.75 41.719C154.75 41.0527 155.182 40.7196 156.047 40.7196C156.912 40.7196 157.337 41.0527 157.323 41.719ZM157.192 52.7185H154.871V43.7271L157.192 43.6213V52.7185Z" fill="#FFFFFF"></path>
    <path d="M166.97 48.2165C166.97 49.877 166.65 51.0767 166.008 51.8156C165.366 52.5545 164.338 52.925 162.923 52.9271C161.502 52.9271 160.473 52.5566 159.835 51.8156C159.198 51.0746 158.874 49.878 158.864 48.2259C158.864 46.5654 159.188 45.3668 159.835 44.63C160.483 43.8931 161.512 43.5175 162.923 43.5029C164.332 43.5029 165.358 43.8755 166.002 44.6206C166.646 45.3658 166.968 46.5644 166.97 48.2165ZM161.592 46.003C161.343 46.3952 161.221 47.1331 161.221 48.2165C161.221 49.3 161.346 50.041 161.598 50.4333C161.851 50.8255 162.296 51.0217 162.929 51.0217C163.563 51.0217 164.001 50.8255 164.248 50.4333C164.495 50.041 164.622 49.3031 164.622 48.2165C164.622 47.13 164.498 46.3952 164.248 46.003C163.998 45.6107 163.56 45.4114 162.929 45.4114C162.299 45.4114 161.839 45.6076 161.592 46.003Z" fill="#FFFFFF"></path>
    <path d="M175.832 52.709H173.582V46.9493C173.582 46.0153 173.104 45.5452 172.15 45.5452C171.856 45.5457 171.566 45.6093 171.298 45.732C171.045 45.8378 170.826 46.0109 170.661 46.2333V52.709H168.383V43.7115L170.019 43.6056L170.357 44.3808C171.032 43.7837 171.9 43.4651 172.793 43.4873C173.206 43.4657 173.618 43.5342 174.003 43.6883C174.388 43.8423 174.736 44.0784 175.025 44.3808C175.569 44.9786 175.842 45.8348 175.844 46.9493L175.832 52.709Z" fill="#FFFFFF"></path>
    <path d="M181.569 41.5166H184.283L186.823 48.0546L187.231 49.1723H187.285L187.694 48.0546L190.249 41.5166H192.962V52.7247H190.714V47.0117L190.745 45.8037L190.699 45.7881L190.291 46.9214L188.044 52.7122H186.408L184.176 46.9369L183.768 45.8037H183.738V47.0117V52.7091H181.563L181.569 41.5166Z" fill="#FFFFFF"></path>
    <path d="M199.917 52.7091L199.741 51.8436L199.698 51.8281C199.402 52.1751 199.033 52.4484 198.618 52.627C198.203 52.8056 197.754 52.8848 197.305 52.8586C196.935 52.8812 196.565 52.826 196.217 52.6964C195.869 52.5668 195.551 52.3656 195.282 52.1052C194.801 51.6039 194.561 50.8598 194.561 49.8604C194.544 49.4771 194.61 49.0948 194.754 48.7404C194.898 48.3859 195.115 48.0679 195.392 47.8087C195.946 47.294 196.72 47.0376 197.713 47.0397C198.286 47.0354 198.857 47.1204 199.406 47.2919V46.7689C199.421 46.5816 199.394 46.3931 199.326 46.2185C199.258 46.044 199.15 45.8881 199.013 45.7633C198.629 45.5191 198.178 45.4097 197.728 45.4519C196.892 45.4508 196.064 45.618 195.292 45.9438L195.103 44.0945C196.067 43.6853 197.104 43.4819 198.148 43.4967C199.433 43.4967 200.341 43.7852 200.871 44.3622C201.4 44.9393 201.665 45.8598 201.665 47.1238V52.7278L199.917 52.7091ZM199.406 49.9632V48.8299C199.003 48.6852 198.577 48.6197 198.151 48.6369C197.167 48.6369 196.677 49.0323 196.677 49.8293C196.677 50.6263 197.094 51.0217 197.932 51.0217C198.298 51.029 198.658 50.9202 198.961 50.7104C199.091 50.6345 199.2 50.5262 199.278 50.3955C199.356 50.2648 199.4 50.116 199.406 49.9632Z" fill="#FFFFFF"></path>
    <path d="M205.652 52.7091H203.377V43.7271L205.186 43.6368L205.39 45.1437H205.435C205.99 44.0602 206.797 43.5175 207.856 43.5154C208.183 43.5111 208.509 43.5573 208.822 43.6524L208.676 45.9345C208.363 45.8349 208.038 45.7845 207.71 45.785C207.433 45.7764 207.157 45.8292 206.902 45.9399C206.646 46.0506 206.417 46.2166 206.23 46.4264C205.826 46.9115 205.619 47.5366 205.652 48.173V52.7091Z" fill="#FFFFFF"></path>
    <path d="M217.519 48.2165C217.519 49.877 217.198 51.0767 216.557 51.8156C215.915 52.5545 214.888 52.925 213.475 52.9271C212.054 52.9271 211.025 52.5566 210.387 51.8156C209.75 51.0746 209.426 49.878 209.416 48.2259C209.416 46.5654 209.739 45.3668 210.387 44.63C211.035 43.8931 212.064 43.5175 213.475 43.5029C214.884 43.5029 215.91 43.8755 216.554 44.6206C217.197 45.3658 217.519 46.5644 217.519 48.2165ZM212.141 46.003C211.893 46.3952 211.77 47.1331 211.77 48.2165C211.77 49.3031 211.894 50.041 212.15 50.4333C212.406 50.8255 212.845 51.0217 213.478 51.0217C214.111 51.0217 214.55 50.8255 214.8 50.4333C215.049 50.041 215.171 49.3031 215.171 48.2165C215.171 47.13 215.046 46.3952 214.8 46.003C214.553 45.6107 214.108 45.4114 213.478 45.4114C212.848 45.4114 212.391 45.6076 212.141 46.003Z" fill="#FFFFFF"></path>
    <path d="M224.703 43.8983L224.572 45.869C224.09 45.688 223.581 45.5922 223.068 45.5857C222.256 45.5857 221.686 45.7798 221.359 46.1679C221.055 46.554 220.878 47.2327 220.878 48.1978C220.878 49.1629 221.058 49.8292 221.417 50.2557C221.621 50.4785 221.871 50.6517 222.148 50.7627C222.426 50.8737 222.725 50.9196 223.022 50.8971C223.576 50.9051 224.125 50.7882 224.63 50.5546L224.788 52.3604C224.095 52.7436 223.312 52.9246 222.526 52.8834C219.862 52.8834 218.529 51.3267 218.527 48.2134C218.525 45.1 219.873 43.5371 222.571 43.5247C223.299 43.5111 224.022 43.6379 224.703 43.8983Z" fill="#FFFFFF"></path>
    <path d="M231.052 52.7091L230.876 51.8436L230.833 51.8281C230.538 52.1751 230.168 52.4484 229.753 52.627C229.338 52.8056 228.889 52.8848 228.44 52.8586C228.07 52.8812 227.7 52.826 227.352 52.6964C227.004 52.5668 226.686 52.3656 226.417 52.1052C225.936 51.6039 225.696 50.8598 225.696 49.8604C225.679 49.4771 225.745 49.0948 225.889 48.7404C226.033 48.3859 226.25 48.0679 226.527 47.8087C227.081 47.294 227.855 47.0376 228.848 47.0397C229.421 47.0354 229.992 47.1204 230.541 47.2919V46.7689C230.556 46.5816 230.529 46.3931 230.461 46.2185C230.393 46.044 230.285 45.8881 230.148 45.7633C229.764 45.5191 229.313 45.4097 228.863 45.4519C228.027 45.4508 227.199 45.618 226.427 45.9438L226.238 44.0945C227.203 43.6853 228.239 43.4819 229.283 43.4967C230.568 43.4967 231.476 43.7852 232.006 44.3622C232.535 44.9393 232.8 45.8598 232.8 47.1238V52.7278L231.052 52.7091ZM230.529 49.9632V48.8299C230.126 48.6852 229.7 48.6197 229.274 48.6369C228.29 48.6369 227.8 49.0323 227.8 49.8293C227.8 50.6263 228.217 51.0217 229.055 51.0217C229.421 51.029 229.781 50.9202 230.084 50.7104C230.214 50.6345 230.323 50.5262 230.401 50.3955C230.479 50.2648 230.523 50.116 230.529 49.9632Z" fill="#FFFFFF"></path>
    <path d="M237.228 41.7189C237.228 42.3759 236.802 42.7059 235.943 42.7059C235.601 42.7319 235.259 42.6539 234.96 42.4817C234.851 42.3906 234.766 42.2731 234.712 42.1399C234.659 42.0067 234.639 41.862 234.655 41.7189C234.655 41.0527 235.087 40.7196 235.952 40.7196C236.799 40.7102 237.228 41.0433 237.228 41.7189ZM237.097 52.7184H234.777V43.7271L237.097 43.6212V52.7184Z" fill="#FFFFFF"></path>
    <path d="M246.626 52.7091H244.363V46.9494C244.363 46.0154 243.888 45.5452 242.932 45.5452C242.638 45.546 242.348 45.6097 242.079 45.732C241.827 45.8363 241.608 46.0097 241.446 46.2333V52.7091H239.168V43.7115L240.803 43.6056L241.138 44.3808C241.814 43.7837 242.682 43.4651 243.575 43.4873C243.988 43.4657 244.401 43.5341 244.786 43.6882C245.172 43.8423 245.521 44.0784 245.81 44.3808C246.356 44.9786 246.628 45.8348 246.626 46.9494V52.7091Z" fill="#FFFFFF"></path>
    <path d="M252.363 52.8741C250.855 52.8741 249.738 52.4736 249.014 51.6724C248.289 50.8712 247.93 49.6695 247.939 48.0671C247.939 46.5955 248.262 45.4664 248.91 44.6798C249.558 43.8931 250.533 43.5009 251.837 43.5029C252.994 43.5029 253.892 43.8537 254.532 44.5553C255.171 45.2568 255.494 46.3081 255.5 47.7091C255.505 48.0733 255.484 48.4374 255.439 48.7988H250.29C250.35 49.546 250.565 50.0783 250.932 50.3959C251.3 50.7135 251.869 50.8733 252.641 50.8754C253.45 50.8767 254.252 50.7247 255.007 50.427L255.253 52.2951C254.342 52.6981 253.356 52.8956 252.363 52.8741ZM250.232 47.2701H253.429C253.399 46.0434 252.878 45.4332 251.867 45.4332C251.652 45.4133 251.436 45.4402 251.232 45.5121C251.029 45.5841 250.842 45.6994 250.685 45.8504C250.397 46.2626 250.244 46.7573 250.247 47.2639L250.232 47.2701Z" fill="#FFFFFF"></path>
    <path d="M268.171 52.7091H266.405L266.186 51.9339L266.143 51.9184C265.597 52.5659 264.808 52.8897 263.777 52.8897C262.638 52.8897 261.79 52.5016 261.231 51.7253C260.673 50.9491 260.393 49.7546 260.391 48.1419C260.391 46.6412 260.673 45.4903 261.237 44.6891C261.804 43.889 262.638 43.4874 263.75 43.4874C264.546 43.4683 265.319 43.7625 265.909 44.3093L265.939 44.2782L265.909 43.0827V41.0963L268.171 40.978V52.7091ZM265.909 50.2465V46.2489C265.738 46.0145 265.512 45.8282 265.251 45.7079C264.991 45.5875 264.705 45.5369 264.42 45.5609C263.798 45.5609 263.361 45.757 263.107 46.1493C262.854 46.5447 262.727 47.2421 262.727 48.2477C262.727 49.3042 262.846 50.0306 263.086 50.4271C263.323 50.8225 263.765 51.0186 264.404 51.0186C265.126 51.0093 265.626 50.7477 265.909 50.2465Z" fill="#FFFFFF"></path>
    <path d="M274.04 52.8741C272.531 52.8741 271.415 52.4736 270.69 51.6724C269.965 50.8712 269.607 49.6695 269.615 48.0671C269.615 46.5955 269.939 45.4664 270.586 44.6798C271.234 43.8931 272.21 43.5009 273.513 43.5029C274.67 43.5029 275.569 43.8537 276.208 44.5553C276.848 45.2568 277.165 46.3081 277.161 47.7091C277.167 48.0732 277.147 48.4373 277.103 48.7988H271.966C272.024 49.546 272.24 50.0783 272.609 50.3959C272.977 50.7135 273.546 50.8754 274.317 50.8754C275.125 50.877 275.926 50.725 276.68 50.427L276.93 52.2951C276.018 52.6981 275.033 52.8956 274.04 52.8741ZM271.908 47.2701H275.09C275.06 46.0434 274.539 45.4332 273.528 45.4332C273.314 45.4133 273.097 45.4402 272.894 45.5121C272.69 45.5841 272.503 45.6994 272.347 45.8504C272.064 46.2645 271.916 46.759 271.923 47.2639L271.908 47.2701Z" fill="#FFFFFF"></path>
    <path d="M284.93 52.7091H282.637V41.0963L284.93 40.9935V52.7091Z" fill="#FFFFFF"></path>
    <path d="M287.835 41.0403C288.7 41.0403 289.132 41.5073 289.132 42.4413C289.094 42.9699 288.954 43.4854 288.718 43.9575C288.477 44.5272 288.17 45.0655 287.805 45.5609L286.988 45.3523L287.366 43.5465C287.145 43.4412 286.954 43.2792 286.812 43.0764C286.659 42.8726 286.577 42.6231 286.577 42.3666C286.577 41.4824 286.996 41.0403 287.835 41.0403Z" fill="#FFFFFF"></path>
    <path d="M296.636 52.7091L296.027 50.5297H292.044L291.434 52.7091H288.837L292.619 41.501H295.552L299.377 52.7091H296.636ZM294.053 43.4126L293.749 44.5925L292.653 48.4251H295.442L294.391 44.5925L294.087 43.4126H294.053Z" fill="#FFFFFF"></path>
    <path d="M306.314 49.8728C306.337 50.2809 306.275 50.6894 306.133 51.0714C305.991 51.4534 305.771 51.8004 305.488 52.0895C304.94 52.6209 304.092 52.8876 302.943 52.8896C301.981 52.927 301.026 52.7127 300.168 52.267L300.403 50.3585C301.173 50.7988 302.045 51.0202 302.927 50.9998C303.782 50.9998 304.21 50.6968 304.213 50.0907C304.205 49.9572 304.161 49.8285 304.086 49.7187C304.012 49.6088 303.909 49.5221 303.789 49.4681C303.463 49.2862 303.118 49.1431 302.76 49.0415C302.346 48.9224 301.939 48.7779 301.542 48.6088C301.134 48.4335 300.781 48.147 300.522 47.7806C300.227 47.3573 300.078 46.8459 300.098 46.3267C300.083 45.9447 300.152 45.564 300.299 45.2127C300.447 44.8614 300.669 44.5484 300.951 44.2968C301.521 43.7903 302.356 43.5361 303.454 43.534C304.315 43.5273 305.169 43.6955 305.967 44.029L305.775 45.922C305.025 45.6082 304.222 45.4515 303.412 45.4612C303.113 45.4412 302.815 45.5116 302.556 45.6635C302.461 45.7197 302.382 45.8011 302.328 45.8993C302.275 45.9974 302.248 46.1085 302.251 46.2208C302.257 46.3518 302.299 46.4783 302.373 46.5853C302.447 46.6924 302.55 46.7755 302.669 46.8248C302.988 46.9969 303.326 47.1296 303.677 47.2202C304.081 47.3347 304.477 47.4751 304.864 47.6405C305.269 47.8138 305.62 48.097 305.878 48.4593C306.17 48.8694 306.323 49.3657 306.314 49.8728Z" fill="#FFFFFF"></path>
    <path d="M313.379 49.8728C313.402 50.2809 313.34 50.6894 313.198 51.0714C313.056 51.4534 312.836 51.8004 312.554 52.0895C312.005 52.6209 311.157 52.8876 310.008 52.8896C309.046 52.927 308.091 52.7127 307.233 52.267L307.468 50.3585C308.238 50.7988 309.11 51.0202 309.992 50.9998C310.847 50.9998 311.276 50.6968 311.278 50.0907C311.27 49.9572 311.226 49.8285 311.151 49.7187C311.077 49.6088 310.974 49.5221 310.854 49.4681C310.528 49.2862 310.183 49.1431 309.825 49.0415C309.411 48.9224 309.004 48.7779 308.607 48.6088C308.199 48.4335 307.846 48.147 307.587 47.7806C307.292 47.3573 307.143 46.8459 307.163 46.3267C307.148 45.9447 307.217 45.564 307.364 45.2127C307.512 44.8614 307.735 44.5484 308.016 44.2968C308.587 43.7903 309.421 43.5361 310.519 43.534C311.381 43.5273 312.235 43.6955 313.032 44.029L312.84 45.922C312.09 45.6082 311.287 45.4515 310.477 45.4612C310.178 45.4412 309.881 45.5116 309.621 45.6635C309.526 45.7197 309.447 45.8011 309.394 45.8993C309.34 45.9974 309.313 46.1085 309.316 46.2208C309.322 46.3518 309.365 46.4783 309.438 46.5853C309.512 46.6924 309.615 46.7755 309.734 46.8248C310.053 46.9969 310.392 47.1296 310.742 47.2202C311.146 47.3347 311.542 47.4751 311.929 47.6405C312.334 47.8138 312.685 48.097 312.943 48.4593C313.235 48.8694 313.388 49.3657 313.379 49.8728Z" fill="#FFFFFF"></path>
    <path d="M322.107 43.6648V49.5023C322.107 51.7398 320.866 52.8596 318.385 52.8616C317.149 52.8616 316.22 52.5731 315.599 51.9961C314.978 51.4191 314.666 50.5889 314.664 49.5054V43.6648H316.927V49.4712C316.927 50.3772 317.411 50.8286 318.385 50.8286C319.36 50.8286 319.844 50.3772 319.844 49.4712V43.6648H322.107Z" fill="#FFFFFF"></path>
    <path d="M326.108 52.7092H323.83V43.7271L325.639 43.6368L325.846 45.1437H325.892C326.446 44.0603 327.258 43.5175 328.328 43.5154C328.654 43.5111 328.978 43.5573 329.291 43.6524L329.144 45.9345C328.833 45.8349 328.508 45.7845 328.182 45.785C327.904 45.7761 327.628 45.8288 327.372 45.9395C327.116 46.0502 326.886 46.2163 326.699 46.4264C326.296 46.9119 326.09 47.537 326.123 48.173L326.108 52.7092Z" fill="#FFFFFF"></path>
    <path d="M335.229 52.7091L335.055 51.8435L335.013 51.828C334.716 52.1751 334.346 52.4484 333.931 52.627C333.516 52.8056 333.066 52.8848 332.616 52.8585C332.247 52.8809 331.877 52.8255 331.53 52.6959C331.183 52.5663 330.865 52.3652 330.597 52.1051C330.113 51.6038 329.872 50.8597 329.872 49.8603C329.856 49.4767 329.922 49.0941 330.066 48.7395C330.21 48.3849 330.429 48.0671 330.707 47.8086C331.261 47.2939 332.034 47.0376 333.027 47.0396C333.601 47.0353 334.172 47.1204 334.72 47.2918V46.7688C334.736 46.5812 334.708 46.3924 334.64 46.2177C334.571 46.0431 334.463 45.8874 334.324 45.7632C333.941 45.5186 333.489 45.4092 333.039 45.4518C332.203 45.4507 331.376 45.6178 330.603 45.9437L330.414 44.0944C331.379 43.6849 332.415 43.4814 333.459 43.4966C334.743 43.4966 335.65 43.7851 336.182 44.3622C336.714 44.9392 336.979 45.8597 336.977 47.1237V52.7277L335.229 52.7091ZM334.72 49.9631V48.8298C334.317 48.6851 333.89 48.6196 333.463 48.6368C332.482 48.6368 331.989 49.0322 331.989 49.8292C331.989 50.6262 332.409 51.0216 333.246 51.0216C333.613 51.0285 333.972 50.9198 334.276 50.7103C334.406 50.6344 334.515 50.5261 334.592 50.3954C334.67 50.2647 334.714 50.1159 334.72 49.9631Z" fill="#FFFFFF"></path>
    <path d="M346.149 52.709H343.887V46.9493C343.887 46.0153 343.409 45.5452 342.455 45.5452C342.161 45.5457 341.871 45.6093 341.603 45.732C341.35 45.8378 341.131 46.0109 340.966 46.2333V52.709H338.688V43.7115L340.324 43.6056L340.659 44.3808C341.335 43.785 342.203 43.4666 343.095 43.4873C343.508 43.4657 343.92 43.5342 344.305 43.6883C344.69 43.8423 345.038 44.0784 345.327 44.3808C345.871 44.9786 346.144 45.8348 346.146 46.9493L346.149 52.709Z" fill="#FFFFFF"></path>
    <path d="M353.653 43.8983L353.522 45.869C353.04 45.688 352.531 45.5922 352.018 45.5857C351.205 45.5857 350.636 45.7798 350.309 46.1679C349.986 46.554 349.828 47.2327 349.828 48.1978C349.828 49.1629 350.008 49.8292 350.367 50.2557C350.571 50.4785 350.821 50.6517 351.098 50.7627C351.376 50.8737 351.675 50.9196 351.972 50.8971C352.526 50.9051 353.075 50.7882 353.58 50.5546L353.738 52.3604C353.045 52.7436 352.262 52.9246 351.476 52.8834C348.812 52.8834 347.479 51.3267 347.477 48.2134C347.475 45.1 348.823 43.5371 351.521 43.5247C352.248 43.5111 352.972 43.6379 353.653 43.8983Z" fill="#FFFFFF"></path>
    <path d="M358.863 52.8741C357.341 52.8741 356.241 52.4725 355.514 51.6724C354.786 50.8722 354.439 49.6705 354.439 48.0671C354.439 46.5955 354.762 45.4664 355.41 44.6798C356.058 43.8931 357.033 43.5009 358.337 43.5029C359.494 43.5029 360.391 43.8537 361.029 44.5553C361.666 45.2568 361.985 46.3081 361.985 47.7091C361.99 48.0732 361.971 48.4373 361.927 48.7988H356.774C356.832 49.546 357.048 50.0783 357.417 50.3959C357.785 50.7135 358.355 50.8754 359.125 50.8754C359.933 50.877 360.735 50.725 361.488 50.427L361.738 52.2951C360.831 52.6959 359.851 52.8933 358.863 52.8741ZM356.732 47.2701H359.914C359.884 46.0434 359.363 45.4332 358.352 45.4332C358.137 45.4133 357.921 45.4402 357.717 45.5121C357.514 45.5841 357.327 45.6994 357.17 45.8504C356.888 46.2645 356.739 46.759 356.747 47.2639L356.732 47.2701Z" fill="#FFFFFF"></path>
    <path d="M111.58 27.8241H109.88C109.812 29.2404 109.203 30.5729 108.186 31.5365C107.168 32.5001 105.822 33.0181 104.435 32.9798H104.307C101.165 32.9798 98.8441 30.5887 98.8441 27.3757V23.7891H101.28V27.3757C101.28 29.2251 102.498 30.4891 104.295 30.4891H104.423C106.214 30.4891 107.468 29.2437 107.468 27.3757V18.8576H109.905V25.3209H111.586L111.58 27.8241ZM102.206 18.3688C102.206 17.9774 102.358 17.6021 102.629 17.3253C102.9 17.0485 103.267 16.8931 103.65 16.8931C104.032 16.8931 104.4 17.0485 104.67 17.3253C104.941 17.6021 105.093 17.9774 105.093 18.3688C105.093 18.7602 104.941 19.1355 104.67 19.4123C104.4 19.689 104.032 19.8445 103.65 19.8445C103.267 19.8445 102.9 19.689 102.629 19.4123C102.358 19.1355 102.206 18.7602 102.206 18.3688Z" fill="#FFFFFF"></path>
    <path d="M115.432 25.3209V27.8116H111.302V25.3209H115.432Z" fill="#FFFFFF"></path>
    <path d="M119.196 25.3209V27.8116H115.066V25.3209H119.196Z" fill="#FFFFFF"></path>
    <path d="M127.82 25.3209V27.8116H125.688C124.844 27.7802 124.047 27.4073 123.471 26.7748C123.133 27.128 122.725 27.4039 122.275 27.5842C121.824 27.7645 121.342 27.8452 120.859 27.8209H118.922L117.853 27.4318V25.7319L118.913 25.3209H120.868C121.982 25.3209 122.22 24.6297 122.22 23.8078V21.4821L122.202 18.9915H124.668V22.8209C124.668 23.0077 124.668 23.1945 124.65 23.4186V23.8296C124.65 24.6515 124.924 25.3427 126.039 25.3427L127.82 25.3209ZM122.521 31.037C122.522 31.3277 122.439 31.6122 122.282 31.8544C122.125 32.0965 121.9 32.2854 121.638 32.3971C121.375 32.5088 121.086 32.5381 120.807 32.4815C120.529 32.4249 120.272 32.2848 120.072 32.079C119.871 31.8732 119.734 31.6111 119.68 31.3259C119.625 31.0406 119.654 30.7452 119.764 30.477C119.874 30.2089 120.059 29.9801 120.296 29.8199C120.533 29.6596 120.812 29.575 121.096 29.5769C121.473 29.5817 121.833 29.7372 122.1 30.0101C122.366 30.283 122.517 30.6516 122.521 31.037ZM126.431 31.037C126.434 31.3295 126.352 31.6164 126.196 31.8611C126.039 32.1058 125.814 32.2974 125.551 32.4115C125.288 32.5256 124.997 32.557 124.716 32.5018C124.435 32.4467 124.176 32.3074 123.973 32.1016C123.769 31.8959 123.63 31.6329 123.573 31.3463C123.517 31.0596 123.544 30.7621 123.653 30.4915C123.762 30.2209 123.947 29.9895 124.184 29.8267C124.422 29.6638 124.702 29.5769 124.988 29.5769C125.368 29.5776 125.732 29.7312 126.002 30.0045C126.273 30.2777 126.427 30.6486 126.431 31.037Z" fill="#FFFFFF"></path>
    <path d="M131.584 25.3209V27.8116H127.455V25.3209H131.584Z" fill="#FFFFFF"></path>
    <path d="M141.63 22.4442V23.5089C141.64 24.6222 141.22 25.6944 140.46 26.4921C139.7 27.2898 138.663 27.7483 137.574 27.768C136.492 27.774 135.438 27.4127 134.578 26.7406C134.276 27.089 133.905 27.3664 133.488 27.5534C133.072 27.7405 132.62 27.8328 132.166 27.824H131.362L130.302 27.4318V25.7132L131.362 25.3209H132.166C132.298 25.3273 132.431 25.305 132.555 25.2554C132.679 25.2058 132.791 25.13 132.884 25.033C132.977 24.936 133.049 24.82 133.095 24.6926C133.142 24.5651 133.161 24.4291 133.152 24.2935V22.4442C133.138 21.8824 133.235 21.3234 133.438 20.8012C133.641 20.279 133.946 19.8043 134.334 19.4061C134.721 19.0078 135.184 18.6942 135.694 18.4844C136.204 18.2745 136.75 18.1727 137.3 18.1851H137.483C138.032 18.174 138.578 18.2767 139.087 18.4871C139.596 18.6974 140.059 19.011 140.446 19.409C140.834 19.807 141.139 20.2811 141.342 20.8027C141.546 21.3244 141.644 21.8827 141.63 22.4442ZM139.194 22.4442C139.21 22.211 139.177 21.977 139.098 21.7578C139.018 21.5386 138.894 21.3392 138.733 21.173C138.572 21.0069 138.379 20.8777 138.165 20.7941C137.952 20.7105 137.723 20.6744 137.495 20.6882H137.312C137.083 20.6737 136.853 20.7091 136.638 20.7922C136.424 20.8753 136.229 21.0041 136.066 21.1702C135.904 21.3362 135.778 21.5357 135.696 21.7553C135.615 21.975 135.58 22.2098 135.595 22.4442V24.3495C135.837 24.646 136.143 24.8824 136.488 25.0409C136.833 25.1995 137.208 25.276 137.586 25.2649C138.022 25.2415 138.432 25.0447 138.728 24.7166C139.024 24.3885 139.182 23.955 139.17 23.5089L139.194 22.4442Z" fill="#FFFFFF"></path>
    <path d="M147.13 13.459H142.983V12.0953H143.64C143.353 11.7658 143.196 11.3382 143.202 10.8967C143.202 9.83192 143.86 9.06604 145.047 9.06604C146.235 9.06604 146.948 9.83192 147.021 11.1956H145.802C145.802 10.9974 145.725 10.8073 145.588 10.6672C145.451 10.5271 145.265 10.4484 145.072 10.4484C144.991 10.4378 144.91 10.4458 144.833 10.4718C144.756 10.4977 144.686 10.5409 144.627 10.5983C144.569 10.6556 144.524 10.7256 144.495 10.8031C144.467 10.8806 144.456 10.9636 144.463 11.0461C144.478 11.2652 144.548 11.4766 144.666 11.6599C144.785 11.8431 144.947 11.9921 145.139 12.0922H147.13V13.459ZM147.934 25.3209V27.8115H146.217C145.909 27.814 145.604 27.7539 145.319 27.6346C145.034 27.5153 144.775 27.3393 144.557 27.1168C144.34 26.8942 144.168 26.6297 144.051 26.3384C143.934 26.0472 143.875 25.7352 143.878 25.4205V14.8226H146.314V24.5176C146.307 24.6203 146.32 24.7236 146.353 24.8208C146.387 24.918 146.439 25.0071 146.508 25.0826C146.576 25.158 146.66 25.2181 146.752 25.2591C146.844 25.3001 146.944 25.3211 147.045 25.3209H147.934Z" fill="#FFFFFF"></path>
    <path d="M151.79 25.3209V27.8116H147.66V25.3209H151.79Z" fill="#FFFFFF"></path>
    <path d="M161.072 25.3209V27.8116H158.203C157.78 27.8008 157.363 27.7035 156.977 27.5255C156.591 27.3474 156.243 27.0922 155.955 26.7748C155.621 27.1345 155.214 27.4159 154.763 27.5997C154.312 27.7835 153.828 27.8653 153.343 27.8396H151.515L150.456 27.4473V25.7319L151.515 25.3209H153.379C154.494 25.3209 154.731 24.6297 154.731 23.8078V21.4821L154.713 18.9914H157.18V22.8209C157.18 23.0077 157.18 23.1945 157.161 23.3999V23.8296C157.161 24.6515 157.436 25.3427 158.532 25.3427L161.072 25.3209ZM152.685 16.1676C152.685 15.8758 152.77 15.5904 152.928 15.3478C153.087 15.1051 153.312 14.9159 153.576 14.8042C153.84 14.6925 154.13 14.6633 154.41 14.7203C154.69 14.7772 154.947 14.9177 155.149 15.1241C155.351 15.3305 155.488 15.5935 155.544 15.8797C155.6 16.166 155.571 16.4627 155.462 16.7324C155.353 17.002 155.168 17.2325 154.93 17.3946C154.693 17.5568 154.414 17.6434 154.128 17.6434C153.746 17.6401 153.381 17.4836 153.111 17.2075C152.841 16.9315 152.688 16.558 152.685 16.1676ZM156.595 16.1676C156.597 15.8789 156.682 15.5972 156.84 15.3578C156.998 15.1184 157.221 14.9319 157.482 14.8217C157.743 14.7115 158.03 14.6826 158.307 14.7385C158.584 14.7944 158.839 14.9326 159.039 15.1359C159.24 15.3392 159.377 15.5984 159.434 15.8812C159.491 16.1639 159.465 16.4576 159.36 16.7253C159.254 16.9931 159.074 17.223 158.841 17.3863C158.608 17.5497 158.333 17.6391 158.051 17.6434C157.667 17.6434 157.298 17.4883 157.026 17.2119C156.753 16.9355 156.598 16.5602 156.595 16.1676Z" fill="#FFFFFF"></path>
    <path d="M166.989 25.3209V27.8115H166.093C165.672 27.8026 165.258 27.706 164.874 27.5278C164.491 27.3495 164.147 27.0933 163.864 26.7748C163.528 27.133 163.121 27.4134 162.671 27.5971C162.22 27.7808 161.736 27.8635 161.251 27.8396H160.868L159.826 27.4473V25.7318L160.868 25.3209H161.288C162.366 25.3209 162.622 24.6484 162.64 23.8451L162.622 14.8164H165.058V23.8078C165.058 24.6297 165.314 25.3209 166.428 25.3209H166.989Z" fill="#FFFFFF"></path>
    <path d="M170.899 25.3209V27.8116H166.769V25.3209H170.899Z" fill="#FFFFFF"></path>
    <path d="M174.754 14.8226V25.4329C174.758 25.7481 174.701 26.0609 174.584 26.3529C174.468 26.6449 174.296 26.9101 174.078 27.133C173.86 27.3559 173.601 27.5318 173.315 27.6505C173.03 27.7692 172.724 27.8282 172.415 27.824H170.68L169.623 27.4317V25.7318L170.683 25.3209H171.596C171.696 25.3204 171.795 25.2988 171.886 25.2573C171.977 25.2158 172.059 25.1553 172.126 25.0797C172.193 25.0042 172.243 24.9152 172.275 24.8184C172.307 24.7216 172.318 24.6192 172.309 24.5176V14.8226H174.754Z" fill="#FFFFFF"></path>
    <path d="M190.504 25.3209V27.8116H189.865C189.372 27.8207 188.883 27.7202 188.432 27.517C187.981 27.3138 187.578 27.0127 187.252 26.6347C186.886 27.0122 186.446 27.307 185.961 27.5C185.477 27.6931 184.958 27.7801 184.438 27.7555C183.351 27.735 182.316 27.2756 181.56 26.4776C180.803 25.6795 180.386 24.6078 180.4 23.4965V22.4441C180.385 21.8825 180.482 21.3236 180.685 20.8014C180.887 20.2792 181.192 19.8045 181.579 19.4062C181.967 19.0079 182.43 18.6943 182.939 18.4844C183.449 18.2745 183.995 18.1726 184.545 18.1851H188.893V24.2841C188.883 24.4201 188.902 24.5568 188.947 24.6849C188.993 24.813 189.065 24.9297 189.158 25.027C189.252 25.1243 189.365 25.2001 189.489 25.2491C189.614 25.2982 189.747 25.3195 189.88 25.3115L190.504 25.3209ZM181.588 15.3581C181.589 15.0661 181.675 14.7811 181.835 14.539C181.994 14.297 182.221 14.1088 182.485 13.9983C182.75 13.8879 183.04 13.8601 183.32 13.9185C183.6 13.9769 183.856 14.1189 184.057 14.3264C184.258 14.534 184.394 14.7978 184.448 15.0845C184.503 15.3712 184.472 15.6679 184.362 15.937C184.251 16.2062 184.064 16.4356 183.826 16.5964C183.587 16.7571 183.308 16.8419 183.022 16.8401C182.643 16.8305 182.282 16.6717 182.015 16.3967C181.748 16.1218 181.595 15.7519 181.588 15.3644V15.3581ZM186.43 20.682H184.545C184.318 20.6699 184.091 20.7073 183.879 20.7918C183.667 20.8762 183.475 21.0058 183.316 21.1719C183.157 21.338 183.035 21.5368 182.957 21.7551C182.879 21.9734 182.847 22.2061 182.864 22.4379V23.5027C182.85 23.95 183.01 24.3848 183.307 24.7133C183.604 25.0417 184.016 25.2376 184.453 25.2586C184.832 25.2716 185.208 25.1959 185.553 25.0372C185.898 24.8786 186.203 24.6412 186.445 24.3433L186.43 20.682ZM185.498 15.3581C185.498 14.9692 185.649 14.5963 185.918 14.3213C186.187 14.0463 186.552 13.8918 186.932 13.8918C187.313 13.8918 187.677 14.0463 187.946 14.3213C188.215 14.5963 188.367 14.9692 188.367 15.3581C188.367 15.7471 188.215 16.12 187.946 16.395C187.677 16.67 187.313 16.8245 186.932 16.8245C186.552 16.8245 186.187 16.67 185.918 16.395C185.649 16.12 185.498 15.7471 185.498 15.3581Z" fill="#FFFFFF"></path>
    <path d="M194.357 25.3209V27.8116H190.227V25.3209H194.357Z" fill="#FFFFFF"></path>
    <path d="M198.121 25.3209V27.8116H193.985V25.3209H198.121Z" fill="#FFFFFF"></path>
    <path d="M201.885 25.3209V27.8116H197.755V25.3209H201.885Z" fill="#FFFFFF"></path>
    <path d="M210.509 25.3209V27.8116H208.377C207.535 27.7786 206.74 27.4058 206.166 26.7748C205.828 27.128 205.42 27.4039 204.97 27.5842C204.519 27.7645 204.036 27.8452 203.553 27.8209H201.598L200.539 27.4286V25.7319L201.598 25.3209H203.553C204.668 25.3209 204.906 24.6297 204.906 23.8078V21.4821L204.887 18.9915H207.354V22.8209C207.354 23.0077 207.354 23.1945 207.336 23.4186V23.8296C207.336 24.6515 207.61 25.3427 208.724 25.3427L210.509 25.3209ZM205.21 31.037C205.211 31.3277 205.128 31.6122 204.971 31.8544C204.813 32.0965 204.589 32.2854 204.327 32.3971C204.064 32.5088 203.775 32.5381 203.496 32.4815C203.217 32.4249 202.961 32.2848 202.76 32.079C202.56 31.8732 202.423 31.6111 202.368 31.3259C202.313 31.0406 202.343 30.7452 202.453 30.477C202.562 30.2089 202.748 29.9801 202.985 29.8199C203.222 29.6596 203.501 29.575 203.785 29.5769C204.162 29.5817 204.522 29.7372 204.788 30.0101C205.055 30.283 205.206 30.6516 205.21 31.037ZM209.12 31.037C209.123 31.3301 209.041 31.6174 208.884 31.8624C208.726 32.1074 208.501 32.2989 208.237 32.4126C207.973 32.5264 207.681 32.5571 207.4 32.5009C207.119 32.4447 206.86 32.3041 206.657 32.0971C206.454 31.8901 206.316 31.6261 206.261 31.3386C206.205 31.0511 206.235 30.7532 206.345 30.4828C206.456 30.2125 206.643 29.9819 206.882 29.8206C207.121 29.6593 207.402 29.5744 207.689 29.5769C208.067 29.5809 208.428 29.7359 208.696 30.0088C208.963 30.2817 209.115 30.6507 209.12 31.037Z" fill="#FFFFFF"></path>
    <path d="M214.273 25.3209V27.8116H210.143V25.3209H214.273Z" fill="#FFFFFF"></path>
    <path d="M213.795 25.321H215.494C215.595 25.3219 215.694 25.3012 215.786 25.2602C215.879 25.2193 215.961 25.159 216.029 25.0833C216.098 25.0076 216.149 24.9181 216.181 24.8207C216.213 24.7233 216.225 24.6201 216.216 24.5177V18.9697H218.652V25.4331C218.654 25.7477 218.596 26.0598 218.479 26.351C218.362 26.6422 218.19 26.9068 217.972 27.1293C217.755 27.3519 217.496 27.5279 217.211 27.6472C216.926 27.7664 216.621 27.8266 216.313 27.8241H213.792L213.795 25.321ZM215.275 31.5228C215.275 31.2309 215.359 30.9456 215.518 30.7029C215.677 30.4602 215.902 30.2711 216.166 30.1594C216.43 30.0477 216.72 30.0185 217 30.0754C217.28 30.1323 217.537 30.2729 217.739 30.4793C217.941 30.6857 218.078 30.9486 218.134 31.2349C218.19 31.5211 218.161 31.8179 218.052 32.0875C217.943 32.3572 217.758 32.5876 217.52 32.7498C217.283 32.912 217.004 32.9985 216.718 32.9985C216.338 32.9913 215.975 32.8335 215.705 32.5583C215.436 32.2831 215.282 31.9119 215.275 31.5228Z" fill="#FFFFFF"></path>
    <path d="M226.265 27.824H224.712V27.9548C224.724 28.5051 224.626 29.0521 224.426 29.5629C224.225 30.0736 223.925 30.5376 223.545 30.9268C223.164 31.316 222.71 31.6224 222.21 31.8276C221.711 32.0327 221.176 32.1323 220.638 32.1204H219.742V29.6298H220.638C220.854 29.6419 221.071 29.6072 221.274 29.528C221.476 29.4487 221.66 29.3267 221.814 29.1698C221.967 29.0129 222.087 28.8248 222.164 28.6175C222.242 28.4103 222.276 28.1887 222.264 27.9672V18.8015H224.7V25.3209H226.265V27.824Z" fill="#FFFFFF"></path>
    <path d="M230.02 25.3209V27.8116H225.891V25.3209H230.02Z" fill="#FFFFFF"></path>
    <path d="M233.784 25.3209V27.8116H229.655V25.3209H233.784Z" fill="#FFFFFF"></path>
    <path d="M245.697 25.3209V27.8116H241.952C241.501 27.8293 241.052 27.7407 240.64 27.5529C240.229 27.365 239.864 27.0828 239.576 26.7282C239.249 27.0681 238.86 27.3388 238.43 27.5247C238.001 27.7106 237.539 27.8081 237.073 27.8116H233.574L232.532 27.4193V25.7132L233.574 25.3209H236.443C236.644 25.3209 238.124 25.2275 238.343 25.0781L235.298 21.0307V19.2125C237.07 18.5401 238.203 18.2412 239.738 18.2412C242.405 18.2412 244.232 19.3028 244.232 21.1179C244.217 21.5087 244.136 21.8939 243.995 22.2574C243.538 23.5277 242.826 24.1628 241.912 25.0781C242.444 25.2462 242.999 25.3282 243.556 25.3209H245.697ZM241.385 21.3421C241.385 20.8751 240.91 20.5575 239.649 20.5575C238.924 20.5619 238.203 20.6881 237.518 20.9311V21.0245L239.802 23.9947C240.411 23.3408 240.916 22.7991 241.227 21.9025C241.322 21.7311 241.376 21.5391 241.385 21.3421ZM237.749 14.9908C237.751 14.7016 237.836 14.4194 237.995 14.1797C238.153 13.94 238.377 13.7535 238.639 13.6437C238.9 13.5338 239.188 13.5056 239.465 13.5624C239.743 13.6193 239.998 13.7588 240.198 13.9633C240.398 14.1678 240.534 14.4282 240.59 14.7118C240.645 14.9954 240.618 15.2895 240.51 15.557C240.403 15.8246 240.22 16.0537 239.986 16.2155C239.751 16.3774 239.475 16.4647 239.193 16.4666C238.811 16.4633 238.445 16.3068 238.175 16.0307C237.905 15.7547 237.752 15.3812 237.749 14.9908Z" fill="#FFFFFF"></path>
    <path d="M249.604 25.3209V27.8116H245.475V25.3209H249.604Z" fill="#FFFFFF"></path>
    <path d="M261.134 25.3209V27.8116H260.525C260.059 27.8196 259.598 27.7195 259.176 27.5189C258.754 27.3183 258.382 27.0224 258.089 26.6535C257.4 27.3562 256.467 27.7523 255.494 27.7556C254.411 27.7616 253.358 27.4003 252.497 26.7282C252.193 27.0792 251.817 27.358 251.396 27.5452C250.976 27.7323 250.52 27.8232 250.061 27.8116H249.403L248.344 27.4193V25.7132L249.403 25.3209H250.061C250.195 25.3291 250.329 25.3081 250.455 25.2594C250.581 25.2106 250.695 25.1352 250.79 25.0382C250.884 24.9411 250.958 24.8245 251.006 24.6962C251.054 24.5678 251.074 24.4306 251.066 24.2935V22.4442C251.052 21.884 251.148 21.3267 251.35 20.8057C251.552 20.2847 251.855 19.811 252.241 19.413C252.627 19.015 253.088 18.701 253.595 18.49C254.103 18.279 254.647 18.1753 255.196 18.1851H255.378C255.927 18.174 256.473 18.2768 256.983 18.4871C257.492 18.6975 257.954 19.0111 258.342 19.4091C258.729 19.807 259.034 20.2811 259.238 20.8028C259.441 21.3244 259.539 21.8828 259.526 22.4442V24.2842C259.516 24.4202 259.534 24.5568 259.58 24.685C259.626 24.8131 259.698 24.9297 259.791 25.0271C259.884 25.1244 259.997 25.2001 260.122 25.2492C260.246 25.2983 260.379 25.3196 260.513 25.3116L261.134 25.3209ZM257.078 23.509V22.4442C257.092 22.2114 257.058 21.978 256.978 21.7595C256.898 21.541 256.774 21.3423 256.613 21.1764C256.453 21.0106 256.26 20.8813 256.047 20.7972C255.834 20.7131 255.606 20.6759 255.378 20.6883H255.196C254.966 20.6737 254.737 20.7091 254.522 20.7922C254.307 20.8753 254.112 21.0041 253.949 21.1702C253.787 21.3363 253.661 21.5357 253.58 21.7554C253.498 21.975 253.464 22.2098 253.478 22.4442V24.3496C253.721 24.6461 254.026 24.8824 254.371 25.041C254.716 25.1995 255.092 25.2761 255.47 25.2649C255.91 25.2479 256.326 25.0538 256.627 24.725C256.928 24.3962 257.09 23.9592 257.078 23.509Z" fill="#FFFFFF"></path>
    <path d="M264.898 25.3209V27.8116H260.768V25.3209H264.898Z" fill="#FFFFFF"></path>
    <path d="M268.753 14.8226V25.4329C268.757 25.7481 268.7 26.0609 268.583 26.3529C268.467 26.6449 268.295 26.9101 268.077 27.133C267.859 27.3559 267.6 27.5318 267.314 27.6505C267.029 27.7692 266.723 27.8282 266.414 27.824H264.679L263.619 27.4317V25.7318L264.679 25.3209H265.592C265.692 25.3204 265.79 25.2988 265.882 25.2573C265.973 25.2158 266.054 25.1553 266.121 25.0797C266.189 25.0042 266.239 24.9152 266.271 24.8184C266.303 24.7216 266.314 24.6192 266.305 24.5176V14.8226H268.753Z" fill="#FFFFFF"></path>
    <path d="M274.146 12.5686V26.6534L271.031 28.6864V14.6047L274.146 12.5686Z" fill="#FFFFFF"></path>
    <path d="M289.394 25.3209V27.8116H288.755C288.262 27.8207 287.773 27.7202 287.322 27.517C286.87 27.3138 286.468 27.0128 286.142 26.6347C285.775 27.0122 285.336 27.307 284.851 27.5001C284.366 27.6931 283.847 27.7802 283.328 27.7556C282.241 27.7351 281.206 27.2756 280.45 26.4776C279.693 25.6796 279.276 24.6078 279.29 23.4965V22.4442C279.275 21.8839 279.371 21.3263 279.573 20.8051C279.775 20.284 280.078 19.81 280.464 19.412C280.85 19.0139 281.311 18.6999 281.819 18.4891C282.327 18.2782 282.871 18.1748 283.419 18.1851H287.78V24.2842C287.77 24.4201 287.788 24.5568 287.834 24.6849C287.88 24.8131 287.952 24.9297 288.045 25.027C288.139 25.1243 288.251 25.2001 288.376 25.2492C288.5 25.2982 288.634 25.3195 288.767 25.3116L289.394 25.3209ZM280.471 15.3644C280.471 15.0725 280.556 14.7872 280.715 14.5445C280.873 14.3018 281.099 14.1127 281.362 14.001C281.626 13.8893 281.916 13.8601 282.196 13.917C282.476 13.974 282.734 14.1145 282.936 14.3209C283.137 14.5273 283.275 14.7902 283.331 15.0765C283.386 15.3628 283.358 15.6595 283.248 15.9291C283.139 16.1988 282.954 16.4293 282.717 16.5914C282.479 16.7536 282.2 16.8401 281.915 16.8401C281.534 16.8329 281.171 16.6752 280.902 16.4C280.633 16.1247 280.478 15.7535 280.471 15.3644ZM285.313 20.6882H283.413C283.186 20.6761 282.959 20.7135 282.747 20.798C282.536 20.8825 282.344 21.0121 282.185 21.1782C282.026 21.3443 281.903 21.5431 281.825 21.7613C281.747 21.9796 281.715 22.2124 281.732 22.4442V23.5089C281.719 23.9563 281.878 24.3911 282.175 24.7195C282.473 25.048 282.885 25.2438 283.322 25.2649C283.7 25.2779 284.076 25.2021 284.422 25.0435C284.767 24.8848 285.072 24.6474 285.313 24.3495V20.6882ZM284.382 15.3644C284.382 14.9755 284.533 14.6025 284.802 14.3275C285.071 14.0525 285.435 13.898 285.816 13.898C286.196 13.898 286.561 14.0525 286.83 14.3275C287.099 14.6025 287.25 14.9755 287.25 15.3644C287.25 15.7533 287.099 16.1263 286.83 16.4013C286.561 16.6763 286.196 16.8308 285.816 16.8308C285.435 16.8308 285.071 16.6763 284.802 16.4013C284.533 16.1263 284.382 15.7533 284.382 15.3644Z" fill="#FFFFFF"></path>
    <path d="M293.262 25.3209V27.8116H289.12V25.3209H293.262Z" fill="#FFFFFF"></path>
    <path d="M305.163 25.3209V27.8115H301.417C300.966 27.8292 300.518 27.7407 300.106 27.5528C299.694 27.3649 299.33 27.0828 299.042 26.7281C298.715 27.0681 298.325 27.3387 297.896 27.5246C297.466 27.7106 297.005 27.808 296.538 27.8115H293.049L292.007 27.4193V25.7318L293.049 25.3209H295.917C296.118 25.3209 297.598 25.2275 297.817 25.078L294.772 21.0307V19.2125C296.545 18.54 297.677 18.2411 299.212 18.2411C301.862 18.2411 303.707 19.3059 303.707 21.1178C303.691 21.5086 303.611 21.8939 303.47 22.2573C303.013 23.5276 302.3 24.1627 301.387 25.078C301.919 25.2462 302.474 25.3281 303.031 25.3209H305.163ZM300.851 21.342C300.851 20.875 300.375 20.5574 299.115 20.5574C298.389 20.5618 297.669 20.688 296.983 20.931V21.0244L299.267 23.9946C299.876 23.3408 300.382 22.799 300.692 21.9024C300.788 21.731 300.842 21.539 300.851 21.342Z" fill="#FFFFFF"></path>
    <path d="M309.07 25.3209V27.8116H304.94V25.3209H309.07Z" fill="#FFFFFF"></path>
    <path d="M319.119 22.4442V23.5089C319.129 24.6222 318.708 25.6944 317.949 26.4921C317.189 27.2898 316.152 27.7483 315.063 27.768C313.98 27.774 312.926 27.4127 312.066 26.7406C311.765 27.089 311.393 27.3664 310.977 27.5534C310.561 27.7405 310.109 27.8328 309.654 27.824H308.851L307.791 27.4318V25.7132L308.851 25.3209H309.654C309.787 25.3273 309.92 25.305 310.044 25.2554C310.168 25.2058 310.28 25.13 310.373 25.033C310.466 24.936 310.538 24.82 310.584 24.6926C310.63 24.5651 310.65 24.4291 310.641 24.2935V22.4442C310.627 21.8824 310.724 21.3234 310.927 20.8012C311.13 20.279 311.435 19.8043 311.822 19.4061C312.21 19.0078 312.673 18.6942 313.183 18.4844C313.693 18.2745 314.239 18.1727 314.789 18.1851H314.972C315.521 18.174 316.066 18.2767 316.576 18.4871C317.085 18.6974 317.548 19.011 317.935 19.409C318.323 19.807 318.627 20.2811 318.831 20.8027C319.034 21.3244 319.133 21.8827 319.119 22.4442ZM316.683 22.4442C316.699 22.211 316.666 21.977 316.587 21.7578C316.507 21.5386 316.383 21.3392 316.222 21.173C316.061 21.0069 315.868 20.8777 315.654 20.7941C315.441 20.7105 315.212 20.6744 314.984 20.6882H314.801C314.572 20.6737 314.342 20.7091 314.127 20.7922C313.912 20.8753 313.717 21.0041 313.555 21.1702C313.392 21.3362 313.266 21.5357 313.185 21.7553C313.104 21.975 313.069 22.2098 313.083 22.4442V24.3495C313.326 24.646 313.632 24.8824 313.977 25.0409C314.321 25.1995 314.697 25.276 315.075 25.2649C315.515 25.2478 315.931 25.0538 316.232 24.725C316.533 24.3962 316.695 23.9592 316.683 23.5089V22.4442Z" fill="#FFFFFF"></path>
    <path d="M323.797 14.8226V24.5176C323.789 24.6204 323.803 24.7236 323.836 24.8208C323.869 24.918 323.922 25.0072 323.991 25.0826C324.059 25.158 324.142 25.2181 324.235 25.2591C324.327 25.3001 324.427 25.3212 324.528 25.3209H325.423V27.8115H323.715C323.407 27.814 323.102 27.7539 322.817 27.6346C322.532 27.5153 322.273 27.3393 322.055 27.1168C321.838 26.8942 321.666 26.6297 321.549 26.3384C321.432 26.0472 321.373 25.7352 321.376 25.4205V14.8226H323.797Z" fill="#FFFFFF"></path>
    <path d="M329.196 25.3209V27.8116H325.067V25.3209H329.196Z" fill="#FFFFFF"></path>
    <path d="M332.966 25.3209V27.8116H328.837V25.3209H332.966Z" fill="#FFFFFF"></path>
    <path d="M345.062 25.3209V27.8116H332.747L331.687 27.4193V25.7318L332.747 25.3209H340.037C339.643 24.7104 339.289 24.0739 338.978 23.4155C337.717 21.1365 336.31 19.9597 333.551 21.0244V18.7268C336.968 17.4814 339.818 19.1938 341.664 23.0606C342.632 25.1901 343.162 25.2835 343.454 25.3209H345.062ZM339.672 30.6821C339.672 31.0735 339.52 31.4488 339.249 31.7256C338.978 32.0023 338.611 32.1578 338.228 32.1578C337.846 32.1578 337.478 32.0023 337.208 31.7256C336.937 31.4488 336.785 31.0735 336.785 30.6821C336.785 30.2907 336.937 29.9153 337.208 29.6386C337.478 29.3618 337.846 29.2063 338.228 29.2063C338.611 29.2063 338.978 29.3618 339.249 29.6386C339.52 29.9153 339.672 30.2907 339.672 30.6821Z" fill="#FFFFFF"></path>
    <path d="M348.991 25.3209V27.8116H344.861V25.3209H348.991Z" fill="#FFFFFF"></path>
    <path d="M352.754 25.3209V27.8116H348.625V25.3209H352.754Z" fill="#FFFFFF"></path>
    <path d="M356.604 14.8226V25.4329C356.608 25.7481 356.55 26.0609 356.434 26.3529C356.318 26.6449 356.146 26.9101 355.928 27.133C355.71 27.3559 355.45 27.5318 355.165 27.6505C354.879 27.7692 354.573 27.8282 354.265 27.824H352.529L351.469 27.4317V25.7318L352.529 25.3209H353.443C353.542 25.3204 353.641 25.2988 353.732 25.2573C353.823 25.2158 353.905 25.1553 353.972 25.0797C354.039 25.0042 354.09 24.9152 354.122 24.8184C354.153 24.7216 354.165 24.6192 354.155 24.5176V14.8226H356.604Z" fill="#FFFFFF"></path>
    <path d="M362 12.5686V26.6534L358.894 28.6864V14.6047L362 12.5686Z" fill="#FFFFFF"></path>
    <path d="M40.9257 61.4795C41.1328 61.6133 41.3429 61.7379 41.55 61.8686L40.7552 61.3705L40.9257 61.4795Z" fill="#FFFFFF"></path>
    <path d="M45.5545 57.9271L45.9839 57.5971C53.7031 51.371 59.8767 43.3709 64.0029 34.2469L64.5632 33.0016L64.0029 31.7562C61.9464 27.2087 59.3738 22.9243 56.3379 18.9915C53.6094 15.4674 50.5495 12.2255 47.202 9.31204C45.5341 10.8711 43.9627 12.5347 42.4971 14.2934C46.7787 20.022 49.7327 26.5631 50.8138 32.93V32.986V33.0451C50.7955 33.151 48.7795 43.9419 40.9988 53.5933C39.5488 55.401 37.9569 57.0847 36.239 58.6276C35.0445 59.6977 33.7875 60.6927 32.475 61.6071L32.3197 61.716L32.1522 61.632C23.9712 57.4835 16.794 51.5284 11.1397 44.1972C8.479 40.7667 6.17451 37.0627 4.26341 33.1448L4.19337 33.0016L4.26341 32.8552C10.247 20.4888 20.0409 10.476 32.137 4.3587L32.3045 4.27464L32.4567 4.38049C33.6609 5.25051 34.8131 6.19347 35.907 7.2043L35.6025 6.9241L39.5614 3.8699C37.6008 2.65933 35.5767 1.5597 33.4982 0.575971L32.2801 0L31.062 0.575971C17.5995 6.94222 6.78876 17.9935 0.560334 31.7562L0 33.0016L0.560334 34.2469C6.78522 48.0122 17.597 59.0645 31.062 65.4271L32.2801 66L33.4982 65.4271C35.942 64.2685 38.3101 62.9499 40.5877 61.4794L40.7582 61.3704L44.9942 58.3661L45.5545 57.9271Z" fill="#FFFFFF"></path>
    <path d="M73.285 18.9915C67.195 11.0997 59.3699 4.7882 50.4453 0.569745L49.2272 -0.00622559L48.0091 0.569745C45.5646 1.72583 43.1965 3.0435 40.9196 4.51436L40.7491 4.62333L36.4309 7.6931L35.8888 8.11652C35.767 8.21303 35.6452 8.30332 35.5264 8.40294C27.8072 14.629 21.6336 22.6291 17.5074 31.7531L16.944 32.9984L17.5074 34.2438C19.5632 38.791 22.1348 43.0753 25.1694 47.0085C27.9008 50.4931 30.9608 53.6945 34.3052 56.5665C36.0591 55.155 37.6299 53.5208 38.9798 51.7035C35.093 46.0807 32.2862 39.7543 30.7088 33.0607V33.0016V32.9455C31.9269 25.7225 35.2371 18.8482 40.5268 12.5188C42.0317 10.717 43.6513 9.0186 45.3749 7.43469C46.5423 6.34353 47.775 5.32765 49.0658 4.39294L49.2211 4.28709L49.3855 4.37115C61.4746 10.4894 71.2641 20.4967 77.25 32.8552L77.32 33.0016L77.25 33.1448C75.3457 37.0663 73.0473 40.7746 70.392 44.2096C67.4046 48.0825 63.9815 51.5822 60.1933 54.6363C56.8337 57.3505 53.2064 59.6993 49.3703 61.6444L49.2059 61.7285L49.0506 61.6195C47.8204 60.7596 46.6381 59.8303 45.5089 58.8362L45.8652 59.1475L42.4849 62.4601C44.2786 63.546 46.1243 64.5394 48.0152 65.4365L49.2333 66.0093L50.4514 65.4365C63.9149 59.0692 74.7242 48.0138 80.9469 34.2469L81.5103 33.0016L80.9469 31.7562C78.8914 27.2088 76.3198 22.9245 73.285 18.9915Z" fill="#FFFFFF"></path>
    <path d="M40.5846 4.52065L40.4354 4.42725L40.7552 4.62961L40.5846 4.52065Z" fill="#FFFFFF"></path>
    <path d="M42.4849 62.4539C42.1804 62.264 41.8758 62.0678 41.55 61.8717L42.4849 62.4539Z" fill="#FFFFFF"></path>
    <path d="M45.2865 58.6276L45.5088 58.8238L44.9911 58.3661L45.2865 58.6276Z" fill="#FFFFFF"></path>
    <path d="M45.5088 58.8238L45.2865 58.6276L44.982 58.3661L40.746 61.3705L41.5408 61.8686C41.8454 62.0648 42.1499 62.2609 42.4757 62.4508L45.8651 59.1538L45.5088 58.8238Z" fill="#FFFFFF"></path>
    <path d="M35.907 7.2168L36.4369 7.69937L36.1507 7.43473L35.907 7.2168Z" fill="#FFFFFF"></path>
    <path d="M39.5675 3.87927C39.872 4.05985 40.1522 4.24042 40.4415 4.42411L39.5675 3.87927Z" fill="#FFFFFF"></path>
    <path d="M40.7551 4.62953L40.4354 4.42716C40.1461 4.24347 39.8537 4.0629 39.5614 3.88232L35.6025 6.93652L35.907 7.21673L36.1507 7.43466L36.4369 7.6993" fill="#FFFFFF"></path>
  </g>
  <defs>
    <clipPath id="clip0_2_695">
      <rect width="362" height="66" fill="white"></rect>
    </clipPath>
  </defs>
</svg>
