<?xml version="1.0" encoding="UTF-8"?>
<svg id="Calque_1" xmlns="http://www.w3.org/2000/svg" version="1.1" viewBox="0 0 146.46 30.06">
  <!-- Generator: Adobe Illustrator 30.2.1, SVG Export Plug-In . SVG Version: 2.1.1 Build 1)  -->
  <defs>
    <style>
      .st0 {
        fill: #575756;
      }

      .st1 {
        fill: #9c96b0;
      }

      .st2 {
        fill: #ac1949;
      }
    </style>
  </defs>
  <g>
    <path class="st0" d="M41.34,19.78v.94h1.59v.83h-1.59v1.69h-.97v-4.34h2.86l.02.88h-1.91Z"/>
    <path class="st0" d="M43.47,21.44c0-1.12.49-1.77,1.55-1.77.9,0,1.45.52,1.45,1.63,0,.13,0,.3-.02.42h-2.04c.05.59.33.81.93.81.33,0,.64-.06.94-.17l.1.72c-.3.13-.7.23-1.15.23-1.21,0-1.75-.64-1.75-1.86ZM45.64,21.13c-.01-.52-.24-.71-.62-.71-.43,0-.6.2-.64.71h1.26ZM45.92,18.6l-.7.84h-.68l.34-.84h1.03Z"/>
    <path class="st0" d="M49.25,23.24l-.09-.3h-.02c-.21.24-.52.37-.94.37-.9,0-1.34-.59-1.34-1.84,0-1.15.44-1.81,1.33-1.81.33,0,.63.11.86.32h.01s-.01-.48-.01-.48v-.77l.9-.05v4.55h-.7ZM49.05,20.74c-.11-.16-.32-.27-.59-.27-.49,0-.67.26-.67,1.04s.16,1.07.67,1.07c.33,0,.52-.15.6-.3v-1.55Z"/>
    <path class="st0" d="M50.53,21.44c0-1.12.49-1.77,1.55-1.77.9,0,1.45.52,1.45,1.63,0,.13,0,.3-.02.42h-2.04c.05.59.33.81.93.81.33,0,.64-.06.94-.17l.1.72c-.3.13-.7.23-1.15.23-1.21,0-1.75-.64-1.75-1.86ZM52.7,21.13c-.01-.52-.24-.71-.62-.71-.43,0-.6.2-.64.71h1.26ZM52.98,18.6l-.7.84h-.68l.34-.84h1.03Z"/>
    <path class="st0" d="M54.08,23.24v-3.49l.72-.03.08.59h.02c.22-.42.56-.63.96-.63.16,0,.29.02.38.05l-.06.89c-.11-.03-.24-.06-.38-.06-.47,0-.82.34-.82.93v1.76h-.9Z"/>
    <path class="st0" d="M58.54,22.91h-.02c-.21.25-.55.39-.95.39-.67,0-1.09-.38-1.09-1.16,0-.65.45-1.09,1.25-1.09.26,0,.49.04.67.1v-.2c0-.35-.19-.52-.67-.52-.39,0-.64.06-.97.19l-.08-.72c.35-.15.75-.23,1.2-.23,1.04,0,1.4.45,1.4,1.41v2.17h-.69l-.07-.34ZM58.4,21.74c-.09-.03-.26-.08-.5-.08-.4,0-.58.16-.58.46,0,.34.2.46.5.46s.58-.19.58-.41v-.44Z"/>
    <path class="st0" d="M61.04,20.41v1.8c0,.27.14.39.42.39.09,0,.21-.02.28-.04l.05.65c-.12.05-.35.1-.6.1-.7,0-1.04-.41-1.04-1.07v-1.82h-.39v-.67h.43l.15-.79.71-.06v.86h.78v.67h-.78Z"/>
    <path class="st0" d="M62.88,19.36c-.35,0-.52-.1-.52-.38,0-.25.17-.39.52-.39s.51.13.51.39-.16.38-.51.38ZM62.42,23.24v-3.49l.92-.04v3.53h-.92Z"/>
    <path class="st0" d="M65.61,23.32c-1.11,0-1.61-.53-1.61-1.82s.5-1.83,1.61-1.83,1.6.54,1.6,1.83-.49,1.82-1.6,1.82ZM65.61,22.59c.49,0,.67-.23.67-1.09s-.18-1.09-.67-1.09-.68.23-.68,1.09.19,1.09.68,1.09Z"/>
    <path class="st0" d="M69.84,23.24v-2.24c0-.39-.2-.54-.57-.54-.23,0-.47.1-.59.27v2.51h-.9v-3.49l.65-.04.13.3c.26-.23.6-.35.97-.35.74,0,1.21.47,1.21,1.34v2.24h-.9Z"/>
    <path class="st0" d="M74.09,18.9l1.01,2.54.16.43h.02l.16-.43,1.01-2.54h1.08v4.34h-.89v-2.68s0,0,0,0l-.16.44-.89,2.25h-.65l-.89-2.24-.16-.44h-.01s0,.48,0,.48v2.21h-.86v-4.34h1.08Z"/>
    <path class="st0" d="M80.22,22.91h-.02c-.21.25-.55.39-.95.39-.67,0-1.09-.38-1.09-1.16,0-.65.45-1.09,1.25-1.09.26,0,.49.04.67.1v-.2c0-.35-.19-.52-.67-.52-.39,0-.64.06-.97.19l-.08-.72c.35-.15.75-.23,1.2-.23,1.04,0,1.4.45,1.4,1.41v2.17h-.69l-.07-.34ZM80.09,21.74c-.09-.03-.26-.08-.5-.08-.4,0-.59.16-.59.46,0,.34.2.46.5.46s.58-.19.58-.41v-.44Z"/>
    <path class="st0" d="M81.67,23.24v-3.49l.72-.03.08.59h.02c.22-.42.56-.63.96-.63.16,0,.29.02.38.05l-.06.89c-.11-.03-.24-.06-.38-.06-.47,0-.82.34-.82.93v1.76h-.9Z"/>
    <path class="st0" d="M85.67,23.32c-1.11,0-1.61-.53-1.61-1.82s.5-1.83,1.61-1.83,1.6.54,1.6,1.83-.49,1.82-1.6,1.82ZM85.67,22.59c.49,0,.67-.23.67-1.09s-.18-1.09-.67-1.09-.68.23-.68,1.09.19,1.09.68,1.09Z"/>
    <path class="st0" d="M90.08,20.59c-.18-.06-.39-.11-.6-.11-.65,0-.87.27-.87,1.01s.31,1.05.85,1.05c.23,0,.45-.05.64-.13l.06.7c-.21.13-.52.2-.9.2-1.04,0-1.59-.59-1.59-1.82,0-1.16.48-1.82,1.6-1.82.3,0,.63.06.85.15l-.05.76Z"/>
    <path class="st0" d="M92.58,22.91h-.02c-.21.25-.55.39-.95.39-.67,0-1.09-.38-1.09-1.16,0-.65.45-1.09,1.25-1.09.26,0,.49.04.67.1v-.2c0-.35-.19-.52-.67-.52-.39,0-.64.06-.97.19l-.08-.72c.35-.15.75-.23,1.2-.23,1.04,0,1.4.45,1.4,1.41v2.17h-.69l-.07-.34ZM92.45,21.74c-.09-.03-.26-.08-.5-.08-.4,0-.59.16-.59.46,0,.34.2.46.5.46s.58-.19.58-.41v-.44Z"/>
    <path class="st0" d="M94.59,19.36c-.35,0-.52-.1-.52-.38,0-.25.17-.39.52-.39s.51.13.51.39-.16.38-.51.38ZM94.13,23.24v-3.49l.92-.04v3.53h-.92Z"/>
    <path class="st0" d="M97.93,23.24v-2.24c0-.39-.2-.54-.57-.54-.23,0-.47.1-.59.27v2.51h-.9v-3.49l.65-.04.13.3c.26-.23.6-.35.97-.35.74,0,1.21.47,1.21,1.34v2.24h-.9Z"/>
    <path class="st0" d="M99.36,21.44c0-1.12.49-1.77,1.55-1.77.9,0,1.45.52,1.45,1.63,0,.13,0,.3-.02.42h-2.04c.05.59.33.81.93.81.33,0,.64-.06.94-.17l.1.72c-.3.13-.7.23-1.15.23-1.21,0-1.75-.64-1.75-1.86ZM101.53,21.13c-.01-.52-.24-.71-.62-.71-.43,0-.6.2-.64.71h1.26Z"/>
    <path class="st0" d="M106.68,23.24l-.09-.3h-.02c-.21.24-.52.37-.94.37-.9,0-1.34-.59-1.34-1.84,0-1.15.44-1.81,1.33-1.81.33,0,.63.11.86.32h.01s-.01-.48-.01-.48v-.77l.9-.05v4.55h-.7ZM106.48,20.74c-.11-.16-.32-.27-.59-.27-.49,0-.67.26-.67,1.04s.16,1.07.67,1.07c.33,0,.52-.15.6-.3v-1.55Z"/>
    <path class="st0" d="M107.96,21.44c0-1.12.49-1.77,1.55-1.77.9,0,1.45.52,1.45,1.63,0,.13,0,.3-.02.42h-2.04c.05.59.33.81.93.81.33,0,.64-.06.94-.17l.1.72c-.3.13-.7.23-1.15.23-1.21,0-1.75-.64-1.75-1.86ZM110.13,21.13c-.01-.52-.24-.71-.62-.71-.43,0-.6.2-.64.71h1.26Z"/>
    <path class="st0" d="M113.12,23.24v-4.51l.91-.04v4.55h-.91Z"/>
    <path class="st0" d="M115.7,19.26c0,.31-.28.89-.53,1.21l-.32-.08.15-.7c-.16-.07-.31-.24-.31-.46,0-.3.14-.52.5-.52s.52.21.52.54Z"/>
    <path class="st0" d="M118.43,22.4h-1.58l-.24.85h-1.03l1.5-4.34h1.16l1.52,4.34h-1.09l-.24-.85ZM117.53,20.09l-.43,1.49h1.11l-.42-1.49-.12-.46h-.02l-.12.46Z"/>
    <path class="st0" d="M121.18,23.31c-.42,0-.8-.08-1.1-.24l.09-.74c.29.17.7.25,1,.25.36,0,.51-.14.51-.35,0-.56-1.63-.24-1.63-1.47,0-.63.43-1.08,1.33-1.08.35,0,.7.07,1,.19l-.08.74c-.29-.12-.68-.18-.94-.18-.3,0-.46.12-.46.3,0,.53,1.6.21,1.6,1.42,0,.7-.39,1.17-1.34,1.17Z"/>
    <path class="st0" d="M123.98,23.31c-.42,0-.8-.08-1.1-.24l.09-.74c.29.17.7.25,1,.25.36,0,.51-.14.51-.35,0-.56-1.63-.24-1.63-1.47,0-.63.43-1.08,1.33-1.08.35,0,.7.07,1,.19l-.08.74c-.29-.12-.68-.18-.94-.18-.3,0-.46.12-.46.3,0,.53,1.6.21,1.6,1.42,0,.7-.39,1.17-1.34,1.17Z"/>
    <path class="st0" d="M128.78,22c0,.85-.48,1.3-1.48,1.3s-1.48-.47-1.48-1.3v-2.27h.9v2.25c0,.35.19.53.58.53s.58-.17.58-.53v-2.25h.9v2.27Z"/>
    <path class="st0" d="M129.47,23.24v-3.49l.72-.03.08.59h.02c.22-.42.56-.63.96-.63.16,0,.29.02.38.05l-.06.89c-.11-.03-.24-.06-.38-.06-.47,0-.82.34-.82.93v1.76h-.9Z"/>
    <path class="st0" d="M133.92,22.91h-.02c-.21.25-.55.39-.95.39-.67,0-1.09-.38-1.09-1.16,0-.65.45-1.09,1.25-1.09.26,0,.49.04.67.1v-.2c0-.35-.19-.52-.67-.52-.39,0-.64.06-.97.19l-.08-.72c.35-.15.75-.23,1.2-.23,1.04,0,1.4.45,1.4,1.41v2.17h-.69l-.07-.34ZM133.79,21.74c-.09-.03-.26-.08-.5-.08-.4,0-.59.16-.59.46,0,.34.2.46.5.46s.58-.19.58-.41v-.44Z"/>
    <path class="st0" d="M137.42,23.24v-2.24c0-.39-.2-.54-.57-.54-.23,0-.47.1-.59.27v2.51h-.9v-3.49l.65-.04.13.3c.26-.23.6-.35.97-.35.74,0,1.21.47,1.21,1.34v2.24h-.9Z"/>
    <path class="st0" d="M141.25,20.59c-.18-.06-.39-.11-.6-.11-.65,0-.87.27-.87,1.01s.31,1.05.85,1.05c.23,0,.45-.05.64-.13l.06.7c-.21.13-.52.2-.9.2-1.04,0-1.59-.59-1.59-1.82,0-1.16.48-1.82,1.6-1.82.3,0,.63.06.85.15l-.05.76Z"/>
    <path class="st0" d="M141.62,21.44c0-1.12.49-1.77,1.55-1.77.9,0,1.45.52,1.45,1.63,0,.13,0,.3-.02.42h-2.04c.05.59.33.81.93.81.33,0,.64-.06.94-.17l.1.72c-.3.13-.7.23-1.15.23-1.21,0-1.75-.64-1.75-1.86ZM143.79,21.13c-.01-.52-.24-.71-.62-.71-.43,0-.6.2-.64.71h1.26Z"/>
  </g>
  <g>
    <path class="st0" d="M42.27,10.84c.15,0,.29-.06.4-.17.11-.11.17-.25.17-.41s-.06-.29-.17-.4c-.11-.11-.25-.17-.4-.17s-.29.06-.4.17c-.11.11-.17.25-.17.39,0,.16.06.29.17.41.11.11.25.17.4.17Z"/>
    <path class="st0" d="M50.73,14.62c-.15,0-.29.06-.4.17-.11.11-.17.24-.17.4s.06.29.17.41c.11.11.25.17.4.17s.29-.06.4-.17c.11-.11.17-.25.17-.41s-.06-.29-.17-.4c-.11-.11-.25-.17-.4-.17Z"/>
    <path class="st0" d="M49.19,14.62c-.15,0-.29.06-.4.17-.11.11-.17.24-.17.4s.06.29.17.41c.11.11.25.17.4.17s.29-.06.4-.17c.11-.11.17-.25.17-.41,0-.15-.06-.28-.17-.4-.11-.11-.24-.17-.4-.17Z"/>
    <path class="st0" d="M56.53,10.42c-.25-.15-.53-.22-.84-.22h-.07c-.31,0-.59.07-.84.22s-.45.34-.59.59-.21.53-.21.84v.72c0,.12-.04.22-.11.29-.07.07-.17.11-.28.11h-2.43c-.2,0-.35-.05-.43-.16-.08-.11-.12-.25-.12-.43v-.16c0-.06,0-.14,0-.23v-1.53h-.98v1.01s0,.91,0,.91c0,.18-.04.33-.12.43-.08.1-.22.16-.42.16h-4.36v-2.51h-.96v3.31c0,.36-.11.65-.33.87s-.51.33-.87.33h-.05c-.36,0-.65-.11-.87-.33s-.33-.51-.33-.87v-1.39h-.97v1.39c0,.41.09.78.28,1.11.19.33.45.59.78.78.33.19.7.28,1.11.28h.05c.39,0,.74-.09,1.06-.26.32-.17.58-.41.77-.71.2-.3.31-.65.33-1.03h4.36c.44,0,.78-.14,1.04-.41.27.27.57.41.88.41h2.57c.19,0,.37-.04.54-.11.16-.07.3-.18.42-.31.16.13.35.22.55.29.21.07.42.11.63.11.29,0,.56-.07.8-.22.25-.15.44-.35.59-.61.15-.25.22-.53.22-.82v-.41c0-.31-.07-.59-.22-.84-.14-.25-.34-.45-.59-.59ZM56.37,12.27c0,.19-.06.35-.19.48-.13.13-.28.2-.45.2-.16,0-.31-.03-.45-.09-.14-.06-.25-.15-.34-.26v-.74c0-.21.06-.37.19-.5.13-.12.29-.18.49-.18h.07c.2,0,.37.06.49.18s.18.29.18.5v.41Z"/>
    <path class="st0" d="M59.52,7.84h-.79c-.1-.05-.17-.12-.21-.2-.04-.08-.06-.15-.06-.21,0-.08.02-.14.07-.17.04-.04.1-.06.17-.06.08,0,.14.03.2.08.05.05.08.12.09.21h.49c-.01-.26-.09-.46-.23-.61-.14-.14-.32-.22-.55-.22s-.41.07-.54.2c-.13.13-.19.3-.19.51,0,.18.06.33.17.46h-.26v.53h1.65v-.53Z"/>
    <path class="st0" d="M62.3,9.9c.15,0,.29-.06.4-.17.11-.11.17-.25.17-.4s-.06-.29-.17-.4c-.11-.11-.25-.17-.4-.17s-.29.06-.4.17c-.11.11-.17.24-.17.4s.06.29.17.4c.11.11.25.17.4.17Z"/>
    <path class="st0" d="M63.85,9.9c.15,0,.29-.06.4-.17.11-.11.17-.25.17-.4s-.06-.29-.17-.4c-.11-.11-.24-.17-.4-.17s-.29.06-.4.17c-.11.11-.17.24-.17.4s.06.29.17.4c.11.11.25.17.4.17Z"/>
    <path class="st0" d="M69.51,12.66c0,.1-.03.18-.09.23-.06.05-.12.08-.2.08h-2.04c-.2,0-.34-.05-.42-.16-.08-.1-.12-.25-.12-.43v-3.49h-.97v3.5c0,.18-.04.32-.12.42-.08.1-.22.15-.41.15h-1.09c-.2,0-.34-.05-.42-.16-.08-.11-.12-.25-.12-.43v-.17c0-.05,0-.13,0-.22v-1.52h-.98v1s0,.91,0,.91c0,.18-.04.33-.12.43-.08.1-.22.16-.42.16h-2.52c-.07,0-.14-.03-.2-.08-.06-.05-.09-.13-.09-.23v-3.76h-.96v4.12c0,.26.09.48.27.66.18.18.4.27.66.27h2.83c.44,0,.79-.14,1.04-.41.13.13.26.23.42.3.15.07.31.11.47.11h1.21c.43,0,.78-.14,1.04-.41.12.13.26.23.41.3.15.08.31.11.47.11h2.51c.26,0,.48-.09.66-.27s.27-.4.27-.66v-4.12h-.97v3.76Z"/>
    <path class="st0" d="M75.39,9.68c.15,0,.29-.06.4-.17s.17-.25.17-.4-.06-.29-.17-.4c-.11-.11-.25-.17-.4-.17s-.29.06-.4.17c-.11.11-.17.25-.17.4s.06.29.17.4c.11.11.25.17.4.17Z"/>
    <path class="st0" d="M73.84,9.68c.15,0,.29-.06.4-.17.11-.11.17-.25.17-.4s-.06-.29-.17-.4c-.11-.11-.25-.17-.4-.17s-.29.06-.4.17-.17.25-.17.4.06.29.17.4c.11.11.25.17.4.17Z"/>
    <path class="st0" d="M83.62,14.62c-.15,0-.29.06-.4.17-.11.11-.17.24-.17.4s.06.29.17.41c.11.11.25.17.4.17s.29-.06.4-.17c.11-.11.17-.25.17-.41s-.06-.29-.17-.4c-.11-.11-.25-.17-.4-.17Z"/>
    <path class="st0" d="M82.07,14.62c-.15,0-.29.06-.4.17-.11.11-.17.24-.17.4s.06.29.17.41c.11.11.25.17.4.17s.29-.06.4-.17c.11-.11.17-.25.17-.41,0-.15-.06-.28-.17-.4-.11-.11-.24-.17-.4-.17Z"/>
    <path class="st0" d="M87,12.66c0,.1-.03.18-.09.23-.06.05-.12.08-.2.08h-2.68c-.2,0-.35-.05-.43-.16-.08-.11-.12-.25-.12-.43v-.16c0-.06,0-.14,0-.23v-1.52h-.98v1s0,.91,0,.91c0,.18-.04.33-.12.43-.08.1-.22.16-.42.16h-5.44c-.12,0-.22-.04-.29-.11-.07-.07-.11-.17-.11-.29v-2.37h-1.73c-.31,0-.59.07-.84.22-.25.15-.44.34-.59.59-.14.25-.21.53-.21.84v.41c0,.3.07.58.22.83.15.25.34.45.58.6.24.15.51.22.8.22.46,0,.84-.15,1.12-.43.13.15.28.26.46.34.18.08.37.12.58.12h5.43c.43,0,.78-.14,1.04-.41.27.27.57.41.88.41h3.15c.26,0,.48-.09.66-.27.18-.18.27-.4.27-.66v-2.54h-.97v2.19ZM75.19,12.59c-.09.12-.21.2-.34.26-.14.06-.29.09-.45.09-.17,0-.32-.07-.44-.2-.13-.13-.19-.29-.19-.48v-.41c0-.21.06-.37.18-.5s.28-.18.48-.18h.75v1.42Z"/>
    <path class="st0" d="M87.2,14.62c-.15,0-.29.06-.4.17-.11.11-.17.25-.17.4s.06.29.17.4c.11.11.25.17.4.17s.29-.06.4-.17c.11-.11.17-.25.17-.4s-.06-.29-.17-.4c-.11-.11-.25-.17-.4-.17Z"/>
    <path class="st0" d="M96.12,9.63c.15,0,.29-.06.4-.17.11-.11.17-.25.17-.41s-.06-.29-.17-.4c-.11-.11-.24-.17-.4-.17s-.29.06-.4.17c-.11.11-.17.24-.17.4s.06.29.17.41c.11.11.25.17.4.17Z"/>
    <path class="st0" d="M106.88,12.66c0,.1-.03.18-.09.23-.06.05-.12.08-.2.08h-2.02c-.12,0-.22-.04-.29-.11-.07-.07-.1-.17-.1-.29v-.72c0-.31-.07-.59-.22-.84s-.34-.45-.59-.59-.53-.22-.84-.22h-.07c-.31,0-.59.07-.84.22-.25.15-.45.34-.59.59-.14.25-.21.53-.21.84v.72c0,.12-.04.22-.11.29-.07.07-.17.11-.29.11h-2.57c-.24,0-.46-.03-.65-.09.12-.11.23-.22.34-.34.11-.11.21-.23.28-.35s.15-.25.2-.41c.06-.16.09-.31.09-.44,0-.35-.16-.62-.49-.82-.33-.2-.76-.3-1.29-.3-.61,0-1.26.13-1.94.38v.7l1.21,1.57s-.13.05-.27.07c-.14.02-.25.03-.31.03h-4.66v-2.5h-.97v3.52c0,.19-.06.35-.18.47-.12.12-.27.18-.47.18h-.36v.97h.36c.3,0,.58-.07.83-.21.25-.14.44-.33.58-.58s.21-.52.21-.83v-.05h4.91c.17,0,.34-.03.51-.1.17-.07.33-.17.48-.32.23.28.54.42.94.42h3.21c.2,0,.38-.04.54-.11.16-.07.3-.18.42-.31.16.13.35.22.55.29.21.07.42.11.63.11.19,0,.38-.04.56-.11.18-.07.34-.18.47-.32.11.14.25.25.42.33.17.08.35.12.55.12h2.34c.26,0,.48-.09.66-.27s.27-.4.27-.66v-4.12h-.97v3.76ZM96.93,11.64c-.05.15-.12.29-.21.4-.08.11-.2.25-.36.41l-.91-1.15v-.04c.28-.1.56-.14.84-.14.46,0,.69.1.69.3,0,.05-.02.13-.06.22ZM103.22,12.27c0,.19-.06.35-.19.48-.13.13-.28.2-.45.2-.16,0-.31-.03-.45-.09-.14-.06-.25-.15-.34-.26v-.74c0-.21.06-.37.19-.5.13-.12.29-.18.49-.18h.07c.2,0,.37.06.49.18.12.12.18.29.18.5v.41Z"/>
    <polygon class="st0" points="108.72 14.25 109.84 13.53 109.84 8.56 108.72 9.27 108.72 14.25"/>
    <path class="st0" d="M114.53,9.68c.15,0,.29-.06.4-.17.11-.11.17-.25.17-.4s-.06-.29-.17-.4c-.11-.11-.25-.17-.4-.17s-.29.06-.4.17c-.11.11-.17.25-.17.4s.06.29.17.4c.11.11.25.17.4.17Z"/>
    <path class="st0" d="M112.97,9.68c.15,0,.29-.06.4-.17s.17-.25.17-.4-.06-.29-.17-.4c-.11-.11-.25-.17-.4-.17s-.29.06-.4.17c-.11.11-.17.25-.17.4s.06.29.17.4.25.17.4.17Z"/>
    <path class="st0" d="M126.93,10.42c-.25-.15-.53-.22-.84-.22h-.07c-.31,0-.59.07-.84.22-.25.15-.45.34-.59.59-.14.25-.21.53-.21.84v.72c0,.12-.04.22-.11.29-.07.07-.17.11-.28.11h-2.63c-.24,0-.46-.03-.65-.09.12-.11.23-.22.34-.34.11-.11.21-.23.28-.35.08-.12.15-.25.2-.41.06-.16.09-.31.09-.44,0-.35-.16-.62-.49-.82-.33-.2-.76-.3-1.29-.3-.3,0-.61.03-.91.09-.3.06-.63.16-.99.29v.7l1.2,1.57s-.13.05-.28.07-.26.03-.33.03h-2.84c-.12,0-.22-.04-.29-.11-.07-.07-.11-.17-.11-.29v-2.37h-1.73c-.31,0-.59.07-.84.22-.25.15-.44.34-.59.59-.14.25-.21.53-.21.84v.41c0,.3.07.58.22.83.15.25.34.45.58.6.24.15.51.22.8.22.46,0,.84-.15,1.12-.43.13.15.28.26.46.34.18.08.37.12.58.12h3.09c.17,0,.34-.03.51-.1.17-.07.33-.17.48-.32.23.28.54.42.94.42h3.27c.19,0,.37-.04.54-.11.16-.07.3-.18.42-.31.16.13.35.22.55.29.21.07.42.11.63.11.29,0,.56-.07.8-.22.25-.15.44-.35.59-.61.14-.25.22-.53.22-.82v-.41c0-.31-.07-.59-.22-.84s-.34-.45-.59-.59ZM114.32,12.59c-.09.12-.21.2-.34.26-.14.06-.29.09-.45.09-.17,0-.32-.07-.44-.2-.13-.13-.19-.29-.19-.48v-.41c0-.21.06-.37.18-.5.12-.12.28-.18.48-.18h.75v1.42ZM120.43,11.64c-.05.15-.12.29-.21.4-.08.11-.2.25-.36.41l-.91-1.15v-.04c.28-.1.56-.14.84-.14.46,0,.69.1.69.3,0,.05-.02.13-.06.22ZM126.76,12.27c0,.19-.06.35-.19.48-.13.13-.28.2-.45.2-.16,0-.31-.03-.45-.09-.14-.06-.25-.15-.34-.26v-.74c0-.21.06-.37.19-.5.13-.12.29-.18.49-.18h.07c.2,0,.37.06.49.18.12.12.18.29.18.5v.41Z"/>
    <path class="st0" d="M135.32,14.63c-.15,0-.29.06-.4.17-.11.11-.17.25-.17.4,0,.16.06.29.17.41.11.11.25.17.4.17s.29-.06.4-.17c.11-.11.17-.25.17-.41s-.06-.29-.17-.4c-.11-.11-.25-.17-.4-.17Z"/>
    <path class="st0" d="M141.64,12.66c0,.1-.03.18-.09.23-.06.05-.12.08-.2.08h-3.96c-.09,0-.19-.07-.3-.18-.11-.11-.24-.34-.41-.7-.29-.59-.64-1.05-1.04-1.37-.4-.32-.85-.48-1.33-.48-.28,0-.56.05-.85.16v.89c.28-.1.52-.15.74-.15.3,0,.56.09.78.27.22.18.43.45.63.81l.09.17c.16.31.27.5.33.57h-6.15c-.07,0-.14-.03-.2-.08-.06-.05-.09-.13-.09-.23v-3.76h-.96v4.12c0,.26.09.48.27.66.18.18.4.27.66.27h12.13c.26,0,.48-.09.66-.27s.27-.4.27-.66v-4.12h-.97v3.76Z"/>
    <polygon class="st0" points="143.48 9.27 143.48 14.25 144.6 13.53 144.6 8.56 143.48 9.27"/>
  </g>
  <g>
    <path class="st1" d="M33.7,14.55c-.81-1.76-1.84-3.43-3.04-4.95-1.2-1.52-2.58-2.91-4.11-4.11-1.52-1.2-3.19-2.22-4.95-3.04l-.48-.22-.48.22c-.95.44-1.9.96-2.81,1.53l-.07.04-1.71,1.19s-.31.24-.36.28c-1.52,1.2-2.9,2.58-4.11,4.11-1.2,1.52-2.22,3.19-3.04,4.95l-.22.48.22.48c.81,1.76,1.84,3.43,3.04,4.95,1.03,1.31,2.36,2.66,3.64,3.75,1-.79,1.66-1.65,1.84-1.9-2.5-3.47-3.29-7.22-3.3-7.26v-.02s0-.02,0-.02c.49-2.8,1.8-5.47,3.89-7.92.6-.7,1.25-1.37,1.92-1.97.85-.76,1.44-1.16,1.46-1.18l.06-.04.07.03c1.52.75,2.96,1.66,4.29,2.71,1.5,1.18,2.86,2.54,4.04,4.04,1.05,1.33,1.96,2.77,2.71,4.29l.03.06-.03.06c-.75,1.52-1.66,2.96-2.71,4.29-1.18,1.5-2.54,2.86-4.04,4.04-1.33,1.05-2.77,1.96-4.29,2.71l-.07.03-.06-.04c-.48-.33-.95-.69-1.4-1.08-.03-.03-.06-.05-.09-.08l-.12-.1-1.68,1.17.32.19c.12.08.25.15.37.23.72.43,1.45.81,2.19,1.15l.48.22.48-.22c1.76-.81,3.43-1.84,4.95-3.04,1.52-1.2,2.9-2.58,4.11-4.11,1.2-1.52,2.22-3.19,3.04-4.95l.22-.48-.22-.48Z"/>
    <path class="st2" d="M26.98,14.55c-.81-1.76-1.84-3.43-3.04-4.95-1.04-1.32-2.32-2.66-3.61-3.74-.47.43-1.24,1.17-1.87,1.93,1.7,2.22,2.87,4.76,3.3,7.23v.02s0,.02,0,.02c0,.04-.81,4.23-3.89,7.96-.58.71-1.22,1.36-1.89,1.95-.48.42-.98.81-1.49,1.16l-.06.04-.07-.03c-1.52-.75-2.96-1.66-4.29-2.71-1.5-1.18-2.86-2.54-4.04-4.04-1.05-1.33-1.96-2.77-2.71-4.29l-.03-.06.03-.06c.75-1.52,1.66-2.96,2.71-4.29,1.18-1.5,2.54-2.86,4.04-4.04,1.33-1.05,2.77-1.96,4.29-2.71l.07-.03s.63.43,1.43,1.14c.03.03.21.19.21.19l1.71-1.19-.13-.08c-.11-.07-.23-.14-.35-.21-.79-.47-1.59-.91-2.4-1.28l-.48-.22-.48.22c-1.76.81-3.43,1.84-4.95,3.04-1.52,1.2-2.9,2.58-4.11,4.11-1.2,1.52-2.22,3.19-3.04,4.95l-.22.48.22.48c.81,1.76,1.84,3.42,3.04,4.95,1.2,1.52,2.58,2.9,4.11,4.11,1.52,1.2,3.19,2.22,4.95,3.04l.48.22.48-.22c.95-.44,1.9-.95,2.81-1.53l.07-.04,1.68-1.17.22-.17c.06-.04.11-.09.17-.13,1.52-1.2,2.9-2.58,4.11-4.11,1.2-1.52,2.22-3.19,3.04-4.95l.22-.48-.22-.48Z"/>
  </g>
</svg>